<svg width="129" height="18" viewBox="0 0 129 18" fill="none" xmlns="http://www.w3.org/2000/svg">
<path d="M0 15.4995L1.87502 14.2501L3.75005 15.4995L0 18V15.4995ZM18.0005 2.5013L16.1255 3.75074L14.2505 2.5013L18.0005 0V2.5013ZM18.0005 11.9995L9.00027 18L0 11.9995L10.6883 4.87523L12.5633 6.12548L3.93787 11.8753L9.1881 15.3754L11.625 13.7503L9.74996 12.5L14.2505 9.49897L18.0005 11.9995ZM0 6.00134L9.00108 0.00241829L18.0014 6.00134L7.31308 13.1256L5.43805 11.8753L14.0635 6.12548L8.81326 2.62624L6.37556 4.25132L8.25059 5.50076L3.75005 8.50184L0 6.00134ZM21.5999 11.0837V14.9965H26.5075C27.6836 14.9965 30.6066 14.8635 30.6066 11.8221C30.6066 11.5642 30.5937 11.3159 30.5639 11.0829L27.5167 11.0837C27.5321 11.2014 27.5385 11.3272 27.5385 11.4578C27.5385 13.1352 26.1488 13.153 25.5313 13.153H24.6204V11.0862H21.5999V11.0837ZM31.8722 11.0837L30.6735 14.9957H33.1418L33.7585 12.8209H36.4074L37.0087 14.9957H39.627L38.4517 11.0837H35.96L36.0156 11.3094H34.1196L34.1704 11.0837H31.8722ZM40.205 11.0837V14.9957H42.3235V11.0837H40.205ZM43.4246 11.0837L45.057 14.9957H48.0017V11.0837H45.88V11.5255L45.6954 11.0837H43.4246ZM49.0126 11.0837C49.04 13.5375 49.352 15.2843 52.7409 15.2843C54.9093 15.2843 56.1773 14.425 56.1773 11.7464H53.7098C53.6792 12.5363 53.6663 13.785 52.7409 13.785C51.8147 13.785 51.5865 13.2916 51.5462 11.0813L49.0126 11.0837ZM56.9174 11.0837C56.9698 13.3295 57.3873 15.2843 60.7311 15.2843C64.0749 15.2843 64.4932 13.3295 64.5448 11.0854L61.9838 11.0837C61.9354 12.9587 61.696 13.7866 60.7303 13.7866C59.7654 13.7866 59.5243 12.9603 59.4776 11.0829L56.9174 11.0837ZM67.2679 11.0837V14.9957H70.9994C74.1473 14.9957 74.5971 12.7507 74.6495 11.0854L72.1167 11.0837C72.0441 12.8136 71.7241 13.4972 70.7027 13.4972H69.7531V11.0837H67.2679ZM75.5878 11.0837C75.6378 13.3255 76.0481 15.2843 79.4048 15.2843C82.7598 15.2843 83.1693 13.3255 83.2209 11.0821L80.6575 11.0837C80.6099 12.9635 80.3721 13.7914 79.4039 13.7914C78.4342 13.7914 78.1948 12.9635 78.1488 11.0837H75.5878ZM85.8118 11.0837V14.9965H90.721C91.8971 14.9965 94.8193 14.8635 94.8193 11.8221C94.8193 11.5634 94.8056 11.3159 94.7782 11.0829L91.7722 11.0821C91.7859 11.2063 91.7923 11.336 91.7923 11.4731C91.7923 13.1506 90.6589 13.1691 90.1567 13.1691H88.8355V11.0821L85.8118 11.0837ZM95.6447 11.0837V14.9949H98.2058V11.0837H95.6447ZM99.2529 11.0837L100.954 14.9949H105.047L105.666 12.8193H108.314L108.914 14.9949L114.863 14.9957C116.506 14.9957 118.172 14.7772 118.172 12.234C118.179 11.8348 118.085 11.4403 117.899 11.087L114.193 11.0837C114.954 11.4433 115.544 11.81 115.544 12.3912C115.544 13.0571 115.187 13.5077 114.456 13.5077L111.083 13.5069L110.356 11.0837H107.864L107.921 11.3151H106.023L106.075 11.0837H103.757L102.821 14.1122L101.451 11.0837H99.2529ZM119.099 11.0837V14.9957H121.598V11.0837H119.099ZM123.062 11.0837V14.9957H128.476V13.5101H125.56V11.0829L123.062 11.0837Z" fill="#2360A5"/>
<path d="M24.622 11.0837V9.76417L25.225 9.74644H25.6103C26.8969 9.74644 27.4112 10.2438 27.5184 11.0837H30.5655C30.4099 9.83833 29.7835 8.99194 28.1262 8.78316C29.6336 8.4841 30.3873 7.48777 30.3873 6.10936C30.3873 3.55083 28.6413 3.00269 26.5277 3.00269H21.6007V11.0854H24.622V11.0837ZM34.1704 11.0837L35.0217 7.29351L35.9592 11.0837H38.4509L36.6766 5.17832H33.6827L31.8722 11.0837H34.1704ZM42.3243 11.0837V8.44783L43.4246 11.0846H45.6955L43.2223 5.17913H40.205V11.0846H42.3243V11.0837ZM48.0018 11.0837V5.17832H45.8801V11.0837H48.0018ZM51.5462 11.0837C51.5412 10.7592 51.5387 10.4346 51.539 10.11C51.539 6.96462 51.7792 6.43421 52.6941 6.43421C53.3527 6.43421 53.6486 6.93318 53.6486 8.26484H56.1008C56.1927 6.115 54.9988 4.93488 52.6345 4.93488C49.1134 4.93488 49.011 7.17179 49.011 10.1084C49.011 10.4421 49.0102 10.7669 49.0126 11.0797L51.5462 11.0837ZM59.4784 11.0837C59.4703 10.7863 59.4679 10.4622 59.4679 10.11C59.4679 7.5442 59.613 6.43421 60.7311 6.43421C61.85 6.43421 61.9943 7.54339 61.9943 10.11C61.9943 10.4622 61.9919 10.7863 61.9838 11.0821L64.5448 11.0837C64.5521 10.7645 64.5521 10.4373 64.5521 10.11C64.5521 7.46117 64.5521 4.9365 60.7311 4.9365C56.9101 4.9365 56.9101 7.46117 56.9101 10.11C56.9101 10.4373 56.9101 10.7645 56.9174 11.0854L59.4784 11.0837ZM69.7556 11.0837V6.67765H70.7713C72.1352 6.67765 72.1352 8.27291 72.1352 10.0882C72.1352 10.4518 72.1288 10.7823 72.1183 11.0813L74.6503 11.0829C74.6648 10.6799 74.6551 10.3107 74.6551 10.0157C74.6551 6.94608 74.0933 5.14608 71.0905 5.14608H67.2679V11.0829L69.7556 11.0837ZM78.1521 11.0837C78.1447 10.7665 78.1412 10.4491 78.1416 10.1318C78.1416 7.57725 78.2875 6.4721 79.4048 6.4721C80.5237 6.4721 80.6671 7.57725 80.6671 10.1318C80.6671 10.4751 80.6655 10.7911 80.6575 11.0837H83.2209C83.2274 10.7694 83.2274 10.4526 83.2274 10.1318C83.2274 7.49503 83.2274 4.98003 79.4048 4.98003C75.5806 4.98003 75.5806 7.49422 75.5806 10.1318C75.5806 10.451 75.5806 10.7694 75.5878 11.0821L78.1521 11.0837ZM88.8379 11.0837V9.78352L89.5989 9.76498H90.2204C91.2611 9.76498 91.6811 10.2567 91.773 11.0878L94.779 11.0862C94.6234 9.84156 93.9938 8.99516 92.3389 8.78558C93.8455 8.48652 94.6 7.48939 94.6 6.11097C94.6 3.55324 92.854 3.0043 90.7395 3.0043H85.8134V11.0837H88.8379ZM98.2058 11.0837V6.68652H99.0546C99.7769 6.68652 100.404 7.21209 100.404 8.17859C100.404 8.99677 99.9946 9.66905 99.3368 9.62633L98.6234 9.63681L99.2529 11.0862H101.453L101.086 10.272C102.36 10.035 102.865 9.22812 102.87 7.74733C102.874 6.0755 101.878 5.17752 100.328 5.17752H95.6448V11.0854H98.2058V11.0837ZM106.076 11.0837L106.929 7.29915L107.864 11.0837H110.356L108.585 5.17671H105.589L103.758 11.0837H106.076ZM117.897 11.0837C116.96 9.33694 113.916 9.30309 113.916 7.72799C113.916 7.04765 114.331 6.68088 115.032 6.68088H117.307V5.16946H114.107C111.478 5.16946 110.829 6.35683 110.829 7.89243C110.829 9.78352 112.797 10.4227 114.193 11.0821L117.897 11.0837ZM121.595 11.0837V5.17832H119.096V11.0837H121.595ZM125.558 11.0837V5.17832H123.059V11.0837H125.558ZM24.622 7.91178V4.84541H25.7062C26.6913 4.84541 27.3862 5.49351 27.3862 6.37376C27.3862 7.53694 26.4978 7.9021 25.861 7.9021H24.8445L24.622 7.91178ZM88.8379 7.93032V4.86395H90.2994C91.0999 4.86395 91.6666 5.51285 91.6666 6.3923C91.6666 7.55468 90.9435 7.92064 90.4244 7.92064H89.5973L88.8379 7.93032Z" fill="#2360A5"/>
</svg>
