<svg width="156" height="44" viewBox="0 0 156 44" fill="none" xmlns="http://www.w3.org/2000/svg">
<path fill-rule="evenodd" clip-rule="evenodd" d="M129.927 22.493L117.544 36.8692L121.226 43.5349L133.507 29.1513L129.927 22.493Z" fill="#346A32"/>
<path fill-rule="evenodd" clip-rule="evenodd" d="M118.995 1.45117L129.949 22.2162L133.54 29.0233L139.312 22.1141L128.487 1.45117H118.995Z" fill="#346A32"/>
<path fill-rule="evenodd" clip-rule="evenodd" d="M146.323 1.54669L140.763 8.07692L144.586 14.5116L156 1.45117L146.323 1.54669Z" fill="#346A32"/>
<path d="M10.4004 41.3581H9.7522L0 0.555213H9.93502L14.5708 22.0486L28.5742 0.555213H37.7779L10.4004 41.3581ZM35.6684 25.3701L46.3312 25.0461L46.413 24.6667C46.6906 23.3808 46.4648 22.326 45.7442 21.5024C45.0149 20.6792 43.9659 20.2627 42.5955 20.2627C41.0678 20.2627 39.685 20.7069 38.4633 21.6044C37.2415 22.5019 36.3124 23.7601 35.6684 25.3701ZM50.6254 31.1434L48.0603 38.6472C46.2236 39.4336 44.4567 40.0256 42.764 40.405C41.071 40.7844 39.4103 40.9697 37.7623 40.9697C33.688 40.9697 30.6618 39.8038 28.6677 37.4628C26.6824 35.1221 26.0919 32.0689 26.903 28.3123C27.7503 24.3893 29.8269 21.0769 33.1422 18.3753C36.4568 15.6735 40.0731 14.3227 43.9805 14.3227C47.3232 14.3227 49.8498 15.3127 51.5705 17.2929C53.2817 19.2728 53.8025 21.8356 53.123 24.9813C53.019 25.4626 52.8141 26.2399 52.5084 27.3129L52.4465 27.4702L51.4492 28.5715L34.6918 29.0339C34.4656 30.681 34.8612 32.0223 35.8803 33.0494C36.9084 34.0765 38.3727 34.5855 40.2615 34.5855C41.6042 34.5855 43.1476 34.2986 44.9122 33.7157C46.6655 33.1419 48.5739 32.2815 50.6254 31.1434ZM63.3543 39.8592H54.7987L60.0742 15.4331H68.0369L67.2691 19.717C68.6112 18.0051 70.0271 16.7653 71.5005 15.988C72.9738 15.211 74.6877 14.8222 76.6414 14.8222H77.3173L75.3508 23.9265H74.4621H73.5083C70.8601 23.9265 69.0068 24.232 67.9698 24.8334C66.9211 25.444 66.1536 26.8967 65.654 29.2098L63.3543 39.8592ZM83.0499 6.32852C83.3315 5.024 84.0234 3.92301 85.1245 3.02554C86.2182 2.11896 87.4181 1.66567 88.7237 1.66567C90.0477 1.66567 91.0538 2.1095 91.758 3.00697C92.4622 3.90444 92.6689 5.00544 92.3834 6.32852C92.1015 7.63337 91.408 8.74349 90.301 9.66864C89.205 10.5847 88.0028 11.0474 86.6973 11.0474C85.4289 11.0474 84.4363 10.5847 83.7122 9.65038C82.9972 8.71579 82.772 7.6148 83.0499 6.32852ZM84.8081 39.8592H76.1972L81.4726 15.4331L90.3352 14.2673L84.8081 39.8592ZM112.371 15.4331L110.98 21.8727H105.147L101.262 39.8592H92.5952L96.4798 21.8727H92.9243L94.3152 15.4331H97.8707L98.3383 13.268C98.9956 10.2239 100.03 7.62391 101.434 5.4496C102.846 3.28474 104.423 1.85973 106.184 1.16579L116.093 0L115.518 2.66473C113.301 3.19227 111.521 4.19132 110.185 5.66257C108.839 7.1335 107.898 9.1323 107.351 11.6674L106.538 15.4331H112.371Z" fill="#346A32"/>
</svg>
