<svg width="82" height="18" viewBox="0 0 82 18" fill="none" xmlns="http://www.w3.org/2000/svg">
<path d="M1.02167 0.000732422C0.861151 0.0164182 0.701155 0.0608613 0.553709 0.146087C0.199732 0.350526 0 0.721756 0 1.10554C0 1.27337 0.0392144 1.44121 0.117121 1.60121L5.57317 11.0838L7.34305 8.02245L10.2235 3.05214L8.45517 0.000732422H1.02115H1.02167Z" fill="#7DB61C"/>
<path d="M8.45569 0.000522972L13.1008 8.02224H16.3645H16.6254L20.3351 1.57904C20.402 1.43682 20.4454 1.27682 20.4454 1.10533C20.4454 0.518677 19.9811 0.0376459 19.3976 0H8.45517L8.45569 0.000522972Z" fill="#00AE9D"/>
<path d="M16.3644 8.02225H7.343L5.57364 11.0836L9.31052 17.5158C9.39941 17.6502 9.51914 17.7652 9.66397 17.851C9.83913 17.9524 10.0295 18 10.2198 18C10.5816 18 10.9356 17.8175 11.1484 17.497L16.6259 8.02173H16.365L16.3644 8.02225Z" fill="#C9D200"/>
<path d="M26.5252 7.83247C25.0037 7.26203 24.359 7.02988 24.359 6.42179C24.359 5.889 24.8997 5.53188 25.8826 5.53188C27.0789 5.53188 28.2695 5.97475 28.4907 6.10128C28.945 4.86733 29.208 2.90347 25.9171 2.90347C22.8825 2.90347 21.0755 4.54629 21.0755 6.67538C21.0755 8.45938 22.4338 9.56575 24.4704 10.2967C25.8277 10.7626 26.3626 11.0873 26.3626 11.6765C26.3626 12.2841 25.8277 12.6574 24.7161 12.6574C23.5052 12.6574 22.3246 12.2841 21.5957 11.9071L20.9866 14.568C21.6647 14.9256 23.0754 15.301 24.5222 15.301C28.0441 15.301 29.6488 13.5327 29.6488 11.4601C29.6488 9.78274 28.6888 8.6382 26.5247 7.83247H26.5252ZM31.2242 3.08542V15.119H34.4565V5.05033C34.4565 3.53979 33.6351 3.08542 31.2242 3.08542ZM45.0554 12.2804C44.5524 12.4786 43.6761 12.6203 42.9101 12.6203C40.6937 12.6203 39.3928 11.2593 39.3928 9.0821C39.3928 6.6346 40.9954 5.54548 42.8395 5.54548C43.8031 5.54548 44.7987 5.82939 45.0711 5.97527C45.6405 4.67387 45.5024 2.90347 42.6957 2.90347C39.1058 2.90347 35.9963 5.06131 35.9963 9.29439C35.9963 12.4969 37.9806 15.2984 42.484 15.2984C43.9145 15.2984 45.0559 15.0296 45.4993 14.7985L45.0559 12.2804H45.0554ZM64.7918 12.7657L64.7583 12.7615C63.2049 12.7615 62.2402 11.263 62.2601 9.10093C62.2601 7.01106 63.2049 5.43777 64.7583 5.43777C66.3316 5.43777 67.2602 7.01106 67.2602 9.08263C67.2602 11.2635 66.3499 12.7662 64.7918 12.7662V12.7657ZM70.6708 8.97387C70.6708 5.76247 68.7059 2.88464 64.8289 2.88464H64.7583C61.103 2.92124 58.8458 5.69554 58.8458 9.17204C58.8458 12.5126 60.8996 15.3172 64.6355 15.3172H64.7583C68.3927 15.2702 70.6708 12.8138 70.6708 8.97439V8.97387ZM76.1813 12.8843C76.0432 12.899 75.9073 12.9068 75.7692 12.9068C75.3578 12.9068 75.0718 12.9068 74.837 12.8702V9.99606H75.6056C75.8069 9.99606 75.9972 10.0034 76.1813 10.0253C77.1004 10.1414 77.7498 10.555 77.7498 11.4057C77.7498 12.3369 77.0612 12.785 76.1813 12.8849V12.8843ZM74.837 5.38548C75.0535 5.34784 75.3578 5.31019 75.8921 5.31019C75.9888 5.31019 76.0877 5.31856 76.1813 5.32535C77.0774 5.39646 77.5198 5.82155 77.5198 6.45473C77.5198 7.08112 77.0821 7.51562 76.1813 7.65731C75.9685 7.68711 75.7389 7.70594 75.4822 7.70594H74.8365V5.38496L74.837 5.38548ZM78.7872 8.61571V8.58277C80.2005 8.0458 80.7511 7.06334 80.7511 6.06468C80.7511 4.88511 80.0734 4.02866 79.1265 3.58109C78.3354 3.18686 77.4717 3.0368 76.1813 3.00072C75.947 2.99288 75.7055 2.99288 75.4445 2.99288C73.9643 2.99288 72.3743 3.1147 71.6407 3.25744V15.0495C72.2849 15.1766 73.3547 15.2649 74.8218 15.2649C75.3081 15.2649 75.763 15.2503 76.1807 15.2205C77.9443 15.1007 79.0627 14.7389 79.7859 14.1931C80.5911 13.585 81.1427 12.6909 81.1427 11.5458C81.1427 10.1184 80.2522 9.02616 78.7867 8.61571H78.7872ZM51.9341 12.7657L51.897 12.7615C50.3426 12.7615 49.3768 11.2598 49.3957 9.10093C49.3957 7.01106 50.3426 5.43777 51.897 5.43777C53.4703 5.43777 54.3979 7.01106 54.3979 9.08263C54.3979 11.2635 53.4849 12.7662 51.9341 12.7662V12.7657ZM51.9676 2.88464H51.8965C48.2396 2.92124 45.984 5.69554 45.984 9.17204C45.984 12.5126 48.0378 15.3172 51.7694 15.3172H51.8965C55.5319 15.2702 57.809 12.8138 57.809 8.97439C57.809 5.76299 55.8446 2.88517 51.9676 2.88517V2.88464Z" fill="white"/>
</svg>
